<svg xmlns="http://www.w3.org/2000/svg" viewBox="0 0 125.4 60"><path d="M16.6 29.1c0-.8-.3-1.5-.6-2.3l-3.8-6.3c-.2-.5-.5-1.1-.5-1.5l-.2.3c-.9 1.5-.9 3.5 0 5l2.9 5c.9 1.5.9 3.5 0 5l-.2.3c-.2-.5-.3-1.1-.6-1.5L11 28.5l-1.7-3c-.3-.5-.4-.9-.6-1.5l-.2.3c-.9 1.5-.9 3.5 0 5l2.9 5c.9 1.5.9 3.5 0 5l-.2.3c0-.6-.2-1.2-.5-1.6l-3.5-6.2c-.5-.9-.8-1.8-.8-2.7C2.7 30 0 32.3 0 34.7 0 38.1 5.1 41 11.6 41c6.3 0 11.6-2.9 11.6-6.3-.1-2.4-2.9-4.7-6.6-5.6zm10.8 10.7c0-.9.2-1.5.5-2.3 1.2.6 2.7.9 3.9.9 2 0 3.2-.6 3.2-2 0-1.2-.8-1.8-2.9-2.7l-1.1-.4c-2.1-.9-3.5-2.1-3.5-4.4 0-2.4 1.7-4.1 5.3-4.1 1.4 0 2.7.2 3.9.6 0 .9-.2 1.5-.5 2.1-1.2-.5-2.6-.6-3.6-.6-2 0-2.7.8-2.7 2 0 1.1.9 1.8 2.4 2.4l1.2.5c2.7 1.2 3.9 2.4 3.9 4.5 0 2.6-2 4.2-5.6 4.2-1.7 0-3.2-.3-4.4-.7zm17.5-11.2c-3.9 0-6 2.3-6 6 0 3.6 2 5.7 4.8 5.7 1.5 0 2.4-.6 3-1.5l.2 1.4h2.3V29.4c-1.4-.5-2.6-.6-4.3-.8zm1.8 9.1c-.6.6-1.4.9-2.3.8-2.1 0-3-1.5-3-3.8 0-2.4 1.2-3.9 3.6-3.9.6 0 1.2 0 1.7.2v6.7zm14.6-4.8v7.2h-2.4v-6.8c0-1.7-.6-2.6-3-2.6-.6 0-1.2 0-2 .2v9.2h-2.4V29.4c1.5-.3 3.2-.6 4.4-.6 4.1 0 5.4 1.5 5.4 4.1zm6.7 5.5c.8 0 1.4-.2 1.8-.3 0 .6-.2 1.4-.3 2-.6.3-1.4.3-2 .3-2.3 0-3.8-1.1-3.8-3.8V25.3c.6-.2 1.5-.3 2.3-.3v4.1h3.8c0 .8-.2 1.4-.2 2.1H66v5.3c0 1.3.8 1.9 2 1.9zm8.5-9.8c-3.9 0-6 2.3-6 6 0 3.6 2 5.7 4.8 5.7 1.5 0 2.4-.6 3-1.5v1.4h2.3V29.4c-1.2-.5-2.4-.6-4.1-.8zm1.9 9.1c-.8.6-1.5.9-2.3.8-2.1 0-3-1.5-3-3.8 0-2.4 1.2-3.9 3.6-3.9.6 0 1.2 0 1.7.2v6.7zm14.4-4.8v7.2h-2.4v-6.8c0-1.7-.6-2.6-3-2.6-.6 0-1.2 0-2 .2v9.2H83V29.4c1.5-.3 3.2-.6 4.4-.6 4.2 0 5.4 1.5 5.4 4.1zm9.7-7.6v3.6c-.6-.2-1.2-.2-1.8-.2-3.9 0-6 2.3-6 6 0 3.6 2 5.7 4.8 5.7 1.7 0 2.6-.6 3.2-1.7l.2 1.4h2.3V25c-.9 0-1.8.2-2.7.3zm.1 12.4c-.6.5-1.4.9-2.4.9-2.1 0-3-1.5-3-3.8 0-2.4 1.1-3.9 3.5-3.9.8 0 1.4 0 2 .2-.1 0-.1 6.6-.1 6.6zm14.6-3.8c0-2.7-1.4-5-4.8-5-3.8 0-5.3 2.6-5.3 5.7 0 3.6 2 5.9 5.9 5.9 1.2 0 2.4-.3 3.5-.8.2-.6.2-1.5.3-2.1-1.2.5-2.4.8-3.8.8-2.3 0-3.3-.9-3.6-2.9h7.5c.2-.5.2-1.1.3-1.6zm-8-.3c.3-1.8 1.2-2.9 2.9-2.9s2.6 1.1 2.6 2.9h-5.5zm16.2-4.8c0 .8-.2 1.7-.2 2.1-.6 0-1.1-.2-1.8-.2-.6 0-1.2 0-1.8.2v9.3h-2.4V29.4c1.1-.3 2.7-.6 4.1-.6h2.1z" fill="#ec0000"/><path fill="none" d="M0 0h125.4v60H0z"/></svg>