<?xml version="1.0" encoding="utf-8"?>
<!-- Generator: Adobe Illustrator 23.0.3, SVG Export Plug-In . SVG Version: 6.00 Build 0)  -->
<svg version="1.1" id="Layer_1" xmlns="http://www.w3.org/2000/svg" xmlns:xlink="http://www.w3.org/1999/xlink" x="0px" y="0px"
	 viewBox="0 0 80 71.5" style="enable-background:new 0 0 80 71.5;" xml:space="preserve">
<style type="text/css">
	.notificaciones-vacias{fill:#585858;}
</style>
<path class="notificaciones-vacias" d="M26.6,71.5c-0.4,0-0.8,0-1.2-0.1c-2.4-0.5-4.1-2.8-4.1-5.3l0-11.4c0-0.2,0-0.5,0-0.8C9,51.2,0.3,40.5,0,27.8
	c-0.2-7.2,2.6-14.1,7.8-19.4C13,3.1,20.3,0,27.8,0h25c7.4,0,14.4,2.9,19.5,8.2c5.2,5.3,7.9,12.3,7.7,19.8
	c-0.4,14.6-12.9,26.5-27.8,26.5H40c-0.3,0-0.7,0.2-0.8,0.5l-8,13.9C30.2,70.5,28.4,71.5,26.6,71.5z M27.8,3.5
	c-6.5,0-12.9,2.7-17.5,7.4c-4.5,4.6-6.9,10.6-6.8,16.9c0.2,11.1,7.9,20.5,18.7,22.7c2.6,0.5,2.6,3,2.6,4.2l0,11.4
	c0,0.9,0.6,1.8,1.4,1.9c0.8,0.2,1.6-0.2,2-0.9l8-13.9c0.8-1.4,2.3-2.2,3.9-2.2h12.2c13,0,23.9-10.4,24.3-23.1
	c0.2-6.5-2.2-12.6-6.7-17.2c-4.5-4.6-10.6-7.2-17-7.2H27.8z"/>
</svg>
